<svg height="512" viewBox="0 0 64 64" width="512" xmlns="http://www.w3.org/2000/svg" xmlns:xlink="http://www.w3.org/1999/xlink"><linearGradient id="New_Gradient_Swatch_1" gradientUnits="userSpaceOnUse" x1="17" x2="17" y1="1.587" y2="66.534"><stop offset="0" stop-color="#fff33b"/><stop offset=".014" stop-color="#fee72e"/><stop offset=".042" stop-color="#fed51b"/><stop offset=".07" stop-color="#fdca10"/><stop offset=".1" stop-color="#fdc70c"/><stop offset=".4" stop-color="#f3903f"/><stop offset=".8" stop-color="#ed683c"/><stop offset="1" stop-color="#e93e3a"/></linearGradient><linearGradient id="New_Gradient_Swatch_1-2" x1="31.854" x2="31.854" xlink:href="#New_Gradient_Swatch_1" y1="1.587" y2="66.534"/><linearGradient id="New_Gradient_Swatch_1-3" x1="46.146" x2="46.146" xlink:href="#New_Gradient_Swatch_1" y1="1.587" y2="66.534"/><linearGradient id="New_Gradient_Swatch_1-4" gradientTransform="matrix(.243 .97 -.97 .243 59.61 -14.357)" x1="39" x2="39" xlink:href="#New_Gradient_Swatch_1" y1="1.587" y2="66.534"/><linearGradient id="New_Gradient_Swatch_1-5" x1="31.997" x2="31.997" xlink:href="#New_Gradient_Swatch_1" y1="1.587" y2="66.534"/><g id="Idea-2" data-name="Idea"><path d="m17 24.969a4.984 4.984 0 0 0 8.905-3.92 4.965 4.965 0 0 0 0-8.1 4.991 4.991 0 0 0 -8.905-3.93 4.987 4.987 0 0 0 -8.9 3.932 4.965 4.965 0 0 0 0 8.1 4.985 4.985 0 0 0 8.9 3.918zm1.1-13.722a3 3 0 0 1 5.9.753c0 .037-.008.071-.01.108a5.055 5.055 0 0 0 -3.489.565l1 1.734a2.927 2.927 0 0 1 2.811-.1 2.983 2.983 0 0 1 -.023 5.387 2.961 2.961 0 0 1 -2.788-.106l-1 1.734a4.919 4.919 0 0 0 3.49.569c0 .035.009.069.009.1a3 3 0 0 1 -6 0v-9.991a2.7 2.7 0 0 1 .1-.753zm-8.1 10.753c0-.036.008-.07.009-.105a4.922 4.922 0 0 0 .991.105 5.022 5.022 0 0 0 2.5-.673l-1-1.734a2.935 2.935 0 0 1 -2.811.095 2.983 2.983 0 0 1 .024-5.388 2.955 2.955 0 0 1 2.788.106l1-1.734a5.1 5.1 0 0 0 -3.489-.565c0-.036-.01-.071-.01-.108a3 3 0 0 1 5.907-.729 2.634 2.634 0 0 1 .091.73v10a3 3 0 0 1 -6 0z" fill="url(#New_Gradient_Swatch_1)"/><path d="m34.293 24.293-6 6a1 1 0 0 0 0 1.414l6 6 1.414-1.414-5.293-5.293 5.293-5.293z" fill="url(#New_Gradient_Swatch_1-2)"/><path d="m43.707 37.707 6-6a1 1 0 0 0 0-1.414l-6-6-1.414 1.414 5.293 5.293-5.293 5.293z" fill="url(#New_Gradient_Swatch_1-3)"/><path d="m30.754 30h16.492v2h-16.492z" fill="url(#New_Gradient_Swatch_1-4)" transform="matrix(.243 -.97 .97 .243 -.537 61.312)"/><path d="m57 16h-25.054a15 15 0 0 0 -28.8-4.8 15.5 15.5 0 0 0 4.954 18.192 4.936 4.936 0 0 1 1.9 3.919v.873a2.982 2.982 0 0 0 .054 5.649 7.007 7.007 0 0 0 6.04 6.1 5 5 0 0 0 4.906 4.067h14v6h-3a3 3 0 0 0 0 6h14a3 3 0 0 0 0-6h-3v-6h14a5.006 5.006 0 0 0 5-5v-24a5.006 5.006 0 0 0 -5-5zm3 5v21h-36.685a6.955 6.955 0 0 0 .631-2.167 2.982 2.982 0 0 0 .054-5.649v-.87a4.84 4.84 0 0 1 1.843-3.877 15.6 15.6 0 0 0 6.098-11.437h25.059a3 3 0 0 1 3 3zm-50.69 6.8a13.692 13.692 0 0 1 -4.31-15.838 12.9 12.9 0 0 1 9.889-7.795 13.009 13.009 0 0 1 15.111 12.833 13.8 13.8 0 0 1 -5.36 10.839 6.848 6.848 0 0 0 -2.64 5.475v.686h-10v-.689a6.942 6.942 0 0 0 -2.69-5.511zm1.69 8.2h12a1 1 0 0 1 0 2h-12a1 1 0 0 1 0-2zm1.1 4h9.8a5 5 0 0 1 -9.8 0zm34.9 19a1 1 0 0 1 -1 1h-14a1 1 0 0 1 0-2h14a1 1 0 0 1 1 1zm-6-3h-4v-6h4zm16-8h-36a2.994 2.994 0 0 1 -2.848-2.1 6.979 6.979 0 0 0 3.738-1.9h38.11v1a3 3 0 0 1 -3 3z" fill="url(#New_Gradient_Swatch_1-5)"/></g></svg>